<mxfile host="app.diagrams.net" modified="2021-05-18T08:13:17.823Z" agent="5.0 (Windows)" etag="SkXOZ3CVkxQPli8MIBeO" version="14.6.11" type="github">
  <diagram id="WaGJKwc9IfxS6GJORAaI" name="Page-1">
    <mxGraphModel dx="3183" dy="2633" grid="1" gridSize="10" guides="1" tooltips="1" connect="1" arrows="1" fold="1" page="1" pageScale="1" pageWidth="850" pageHeight="1100" math="0" shadow="0">
      <root>
        <mxCell id="0" />
        <mxCell id="1" parent="0" />
        <mxCell id="SYbXmtHqdc3srW7-1RrD-3" value="" style="edgeStyle=orthogonalEdgeStyle;rounded=0;orthogonalLoop=1;jettySize=auto;html=1;" edge="1" parent="1" source="SYbXmtHqdc3srW7-1RrD-1" target="SYbXmtHqdc3srW7-1RrD-2">
          <mxGeometry relative="1" as="geometry" />
        </mxCell>
        <mxCell id="SYbXmtHqdc3srW7-1RrD-13" style="edgeStyle=orthogonalEdgeStyle;rounded=0;orthogonalLoop=1;jettySize=auto;html=1;exitX=0;exitY=0.5;exitDx=0;exitDy=0;" edge="1" parent="1" source="SYbXmtHqdc3srW7-1RrD-1" target="SYbXmtHqdc3srW7-1RrD-10">
          <mxGeometry relative="1" as="geometry" />
        </mxCell>
        <mxCell id="SYbXmtHqdc3srW7-1RrD-1" value="Заказ" style="rounded=0;whiteSpace=wrap;html=1;" vertex="1" parent="1">
          <mxGeometry x="350" y="300" width="120" height="60" as="geometry" />
        </mxCell>
        <mxCell id="SYbXmtHqdc3srW7-1RrD-5" value="" style="edgeStyle=orthogonalEdgeStyle;rounded=0;orthogonalLoop=1;jettySize=auto;html=1;" edge="1" parent="1" source="SYbXmtHqdc3srW7-1RrD-2" target="SYbXmtHqdc3srW7-1RrD-4">
          <mxGeometry relative="1" as="geometry" />
        </mxCell>
        <mxCell id="SYbXmtHqdc3srW7-1RrD-7" value="" style="edgeStyle=orthogonalEdgeStyle;rounded=0;orthogonalLoop=1;jettySize=auto;html=1;" edge="1" parent="1" source="SYbXmtHqdc3srW7-1RrD-2" target="SYbXmtHqdc3srW7-1RrD-6">
          <mxGeometry relative="1" as="geometry" />
        </mxCell>
        <mxCell id="SYbXmtHqdc3srW7-1RrD-9" value="" style="edgeStyle=orthogonalEdgeStyle;rounded=0;orthogonalLoop=1;jettySize=auto;html=1;" edge="1" parent="1" source="SYbXmtHqdc3srW7-1RrD-2" target="SYbXmtHqdc3srW7-1RrD-8">
          <mxGeometry relative="1" as="geometry" />
        </mxCell>
        <mxCell id="SYbXmtHqdc3srW7-1RrD-2" value="Товар" style="rounded=0;whiteSpace=wrap;html=1;" vertex="1" parent="1">
          <mxGeometry x="350" y="160" width="120" height="60" as="geometry" />
        </mxCell>
        <mxCell id="SYbXmtHqdc3srW7-1RrD-12" style="edgeStyle=orthogonalEdgeStyle;rounded=0;orthogonalLoop=1;jettySize=auto;html=1;" edge="1" parent="1" source="SYbXmtHqdc3srW7-1RrD-4" target="SYbXmtHqdc3srW7-1RrD-10">
          <mxGeometry relative="1" as="geometry">
            <Array as="points">
              <mxPoint x="610" y="410" />
              <mxPoint x="300" y="410" />
              <mxPoint x="300" y="330" />
            </Array>
          </mxGeometry>
        </mxCell>
        <mxCell id="SYbXmtHqdc3srW7-1RrD-4" value="Корзина" style="rounded=0;whiteSpace=wrap;html=1;" vertex="1" parent="1">
          <mxGeometry x="550" y="160" width="120" height="60" as="geometry" />
        </mxCell>
        <mxCell id="SYbXmtHqdc3srW7-1RrD-11" value="" style="edgeStyle=orthogonalEdgeStyle;rounded=0;orthogonalLoop=1;jettySize=auto;html=1;" edge="1" parent="1" source="SYbXmtHqdc3srW7-1RrD-6" target="SYbXmtHqdc3srW7-1RrD-10">
          <mxGeometry relative="1" as="geometry" />
        </mxCell>
        <mxCell id="SYbXmtHqdc3srW7-1RrD-6" value="Магазин" style="whiteSpace=wrap;html=1;rounded=0;" vertex="1" parent="1">
          <mxGeometry x="150" y="160" width="120" height="60" as="geometry" />
        </mxCell>
        <mxCell id="SYbXmtHqdc3srW7-1RrD-8" value="Категория" style="whiteSpace=wrap;html=1;rounded=0;" vertex="1" parent="1">
          <mxGeometry x="350" y="20" width="120" height="60" as="geometry" />
        </mxCell>
        <mxCell id="SYbXmtHqdc3srW7-1RrD-15" value="" style="edgeStyle=orthogonalEdgeStyle;rounded=0;orthogonalLoop=1;jettySize=auto;html=1;" edge="1" parent="1" source="SYbXmtHqdc3srW7-1RrD-10" target="SYbXmtHqdc3srW7-1RrD-14">
          <mxGeometry relative="1" as="geometry" />
        </mxCell>
        <mxCell id="SYbXmtHqdc3srW7-1RrD-17" value="" style="edgeStyle=orthogonalEdgeStyle;rounded=0;orthogonalLoop=1;jettySize=auto;html=1;" edge="1" parent="1" source="SYbXmtHqdc3srW7-1RrD-10" target="SYbXmtHqdc3srW7-1RrD-16">
          <mxGeometry relative="1" as="geometry" />
        </mxCell>
        <mxCell id="SYbXmtHqdc3srW7-1RrD-10" value="Пользователь" style="whiteSpace=wrap;html=1;rounded=0;" vertex="1" parent="1">
          <mxGeometry x="150" y="300" width="120" height="60" as="geometry" />
        </mxCell>
        <mxCell id="SYbXmtHqdc3srW7-1RrD-14" value="Сообщение" style="whiteSpace=wrap;html=1;rounded=0;" vertex="1" parent="1">
          <mxGeometry x="-50" y="300" width="120" height="60" as="geometry" />
        </mxCell>
        <mxCell id="SYbXmtHqdc3srW7-1RrD-16" value="Роль" style="whiteSpace=wrap;html=1;rounded=0;" vertex="1" parent="1">
          <mxGeometry x="150" y="440" width="120" height="60" as="geometry" />
        </mxCell>
      </root>
    </mxGraphModel>
  </diagram>
</mxfile>
